PERFORMER "Friendly Fires"
TITLE "Essential Mix (2009-06-27) [TMB]"
FILE "Essential Mix - 2009-06-27 - Friendly Fires.mp3" MP3
  TRACK 01 AUDIO
    PERFORMER "Essential Mix"
    TITLE "Intro"
    INDEX 01 00:00:00
  TRACK 02 AUDIO
    PERFORMER "Alexandro Jodorowsky"
    TITLE "F Machine"
    INDEX 01 02:31:56
  TRACK 03 AUDIO
    PERFORMER "Tony Lionni"
    TITLE "Found A Place"
    INDEX 01 06:47:74
  TRACK 04 AUDIO
    PERFORMER "Luke Solomon"
    TITLE "People, Places, Thoughts And Faces (Ajello ReMix)"
    INDEX 01 07:48:70
  TRACK 05 AUDIO
    PERFORMER "David Labeij"
    TITLE "Shakedown"
    INDEX 01 12:53:47
  TRACK 06 AUDIO
    PERFORMER "Just Two Ordinary People"
    TITLE "Lucky Times (Paul Frick ReMix)"
    INDEX 01 16:57:23
  TRACK 07 AUDIO
    PERFORMER "2000 And One"
    TITLE "Wan Poku Moro"
    INDEX 01 22:05:74
  TRACK 08 AUDIO
    PERFORMER "Pezzner"
    TITLE "Shasta"
    INDEX 01 26:26:74
  TRACK 09 AUDIO
    PERFORMER "Mark Broom And Brothers Vibe"
    TITLE "Mind/Feeling (youANDme Hirsch Edit)"
    INDEX 01 30:53:43
  TRACK 10 AUDIO
    PERFORMER "Makam"
    TITLE "New York Hustler"
    INDEX 01 36:12:36
  TRACK 11 AUDIO
    PERFORMER "Arto Mwambe"
    TITLE "Ombala Mbembo"
    INDEX 01 40:02:04
  TRACK 12 AUDIO
    PERFORMER "Michel Cleis"
    TITLE "La Mezcla"
    INDEX 01 45:29:64
  TRACK 13 AUDIO
    PERFORMER "Visti & Meyland"
    TITLE "Yes Ma'am (Kasper Bjorke Mix)"
    INDEX 01 55:45:33
  TRACK 14 AUDIO
    PERFORMER "DOP"
    TITLE "The Genius of the Crowd"
    INDEX 01 61:14:74
  TRACK 15 AUDIO
    PERFORMER "STL"
    TITLE "Something Is Raw"
    INDEX 01 66:13:71
  TRACK 16 AUDIO
    PERFORMER "Alec Wizz"
    TITLE "Drummin (H2O Mix)"
    INDEX 01 69:47:20
  TRACK 17 AUDIO
    PERFORMER "Liquid Liquid"
    TITLE "Optimo (Optimo ReMix)"
    INDEX 01 75:22:49
  TRACK 18 AUDIO
    PERFORMER "Silver City"
    TITLE "Pendulo (Pete Herbert Edit)"
    INDEX 01 79:30:00
  TRACK 19 AUDIO
    PERFORMER "Anton Pieete"
    TITLE "Players"
    INDEX 01 83:56:60
  TRACK 20 AUDIO
    PERFORMER "Harry Axt"
    TITLE "Crazy"
    INDEX 01 87:47:04
  TRACK 21 AUDIO
    PERFORMER "Daniele Papini"
    TITLE "Church Of Nonsense"
    INDEX 01 91:29:09
  TRACK 22 AUDIO
    PERFORMER "Cajmere"
    TITLE "Say U Will"
    INDEX 01 94:32:00
  TRACK 23 AUDIO
    PERFORMER "Friendly Fires"
    TITLE "Jump In The Pool (Wild Geese Mix)"
    INDEX 01 97:34:74
  TRACK 24 AUDIO
    PERFORMER "Photonz"
    TITLE "No Fear"
    INDEX 01 102:01:46
  TRACK 25 AUDIO
    PERFORMER "Paul Woolford"
    TITLE "Pandemonium"
    INDEX 01 106:22:45
  TRACK 26 AUDIO
    PERFORMER "Kerri Chandler"
    TITLE "Six Pianos"
    INDEX 01 110:56:68
  TRACK 27 AUDIO
    PERFORMER "Whirlpool Productions"
    TITLE "From Disco: To Disco"
    INDEX 01 114:30:00